<svg xmlns="http://www.w3.org/2000/svg" xmlns:xlink="http://www.w3.org/1999/xlink" width="378" zoomAndPan="magnify" viewBox="0 0 283.5 283.500005" height="378" preserveAspectRatio="xMidYMid meet" version="1.2"><defs><clipPath id="78f87b2ff2"><path d="M 0 0 L 283 0 L 283 283 L 0 283 Z M 0 0 "/></clipPath></defs><g id="fe6b978658"><path style=" stroke:none;fill-rule:nonzero;fill:#ffffff;fill-opacity:1;" d="M 0 0 L 283 0 L 283 283 L 0 283 Z M 0 0 "/><g clip-rule="nonzero" clip-path="url(#78f87b2ff2)"><path style=" stroke:none;fill-rule:nonzero;fill:#000000;fill-opacity:1;" d="M 0 0 L 283.035156 0 L 283.035156 283.035156 L 0 283.035156 Z M 0 0 "/></g><g style="fill:#ffffff;fill-opacity:1;"><g transform="translate(17.634637, 191.532901)"><path style="stroke:none" d="M 56.578125 -104.625 C 93.171875 -104.625 111.46875 -87.1875 111.46875 -52.3125 C 111.46875 -17.4375 93.171875 0 56.578125 0 L 11.25 0 L 11.25 -104.625 Z M 44.859375 -25.09375 L 55.96875 -25.09375 C 70.0625 -25.09375 77.109375 -32.644531 77.109375 -47.75 L 77.109375 -56.875 C 77.109375 -71.976562 70.0625 -79.53125 55.96875 -79.53125 L 44.859375 -79.53125 Z M 44.859375 -25.09375 "/></g></g><g style="fill:#ffffff;fill-opacity:1;"><g transform="translate(135.955034, 191.532901)"><path style="stroke:none" d="M 30.421875 0 L 0 -80.296875 L 32.546875 -80.296875 L 47.296875 -30.265625 L 48.359375 -30.265625 L 63.109375 -80.296875 L 92.921875 -80.296875 L 62.203125 0 Z M 30.421875 0 "/></g></g><g style="fill:#ffffff;fill-opacity:1;"><g transform="translate(214.733864, 191.532901)"><path style="stroke:none" d="M 9.28125 0 L 9.28125 -30.265625 L 41.515625 -30.265625 L 41.515625 0 Z M 9.28125 0 "/></g></g></g></svg>